<?xml version="1.0" encoding="utf-8"?>
<!-- Generator: Adobe Illustrator 16.0.0, SVG Export Plug-In . SVG Version: 6.00 Build 0)  -->
<!DOCTYPE svg PUBLIC "-//W3C//DTD SVG 1.1//EN" "http://www.w3.org/Graphics/SVG/1.1/DTD/svg11.dtd">
<svg version="1.1" id="Layer_1" xmlns="http://www.w3.org/2000/svg" xmlns:xlink="http://www.w3.org/1999/xlink" x="0px" y="0px"
	 width="100px" height="100px" viewBox="-39 -39 100 100" enable-background="new -39 -39 100 100" xml:space="preserve">
<rect x="-39.29" y="-38.462" fill="#EF5B34" width="102.29" height="100"/>
<g>
	<path fill="#FFFFFF" d="M48.512,7.751c-0.073-0.095-0.141-0.196-0.21-0.295c-0.061-0.087-0.12-0.169-0.186-0.243
		c-0.064-0.083-0.124-0.161-0.193-0.241c-0.121-0.161-0.253-0.315-0.391-0.468c-0.067-0.075-0.133-0.149-0.205-0.222
		c-0.072-0.073-0.141-0.152-0.218-0.22c-0.073-0.075-0.138-0.146-0.209-0.216c-0.146-0.143-0.298-0.283-0.443-0.423
		c-0.088-0.065-0.157-0.133-0.233-0.194c-0.081-0.071-0.161-0.136-0.237-0.194c-0.323-0.26-0.665-0.515-1.02-0.746
		c-0.073-0.049-0.154-0.104-0.23-0.148c-1.744-1.104-3.774-1.79-5.961-1.946c-0.187-0.013-0.371-0.021-0.561-0.028
		c-0.113-0.004-0.234-0.004-0.343-0.004c-0.174,0-0.334,0.004-0.499,0.012c-0.069,0-0.142,0-0.206,0.004
		c-0.137,0.004-0.273,0.017-0.419,0.031c-0.185,0.013-0.366,0.032-0.551,0.056c-0.134,0.021-0.263,0.035-0.403,0.063
		c-0.157,0.023-0.303,0.053-0.451,0.075c-0.149,0.035-0.294,0.067-0.456,0.102c-0.056,0.013-0.1,0.028-0.152,0.045
		c-0.089,0.015-0.178,0.046-0.262,0.066c-0.214,0.059-0.439,0.123-0.649,0.193c-0.101,0.038-0.209,0.07-0.313,0.105
		c-0.186,0.072-0.379,0.143-0.572,0.221c-0.233,0.099-0.476,0.205-0.71,0.33c-0.088,0.032-0.156,0.074-0.241,0.115
		c-0.104,0.05-0.201,0.099-0.285,0.157c-0.102,0.048-0.198,0.106-0.294,0.164c-0.098,0.053-0.206,0.111-0.299,0.178
		c-0.177,0.111-0.354,0.231-0.532,0.342c-0.269,0.187-0.539,0.383-0.788,0.59c-0.171,0.136-0.335,0.277-0.496,0.427
		c-0.085,0.067-0.169,0.146-0.246,0.217c-0.089,0.07-0.161,0.152-0.241,0.228c-0.08,0.079-0.158,0.161-0.227,0.236
		c-0.08,0.076-0.156,0.154-0.225,0.24c-0.242,0.256-0.46,0.516-0.677,0.791c-0.21,0.275-0.415,0.556-0.601,0.839
		c-0.189,0.295-0.371,0.591-0.536,0.896c-0.165,0.292-0.318,0.603-0.459,0.918c0,0-0.008,0.011-0.008,0.019l1.494,2.607
		c0.048-0.158,0.084-0.312,0.125-0.462c0.023-0.066,0.048-0.126,0.068-0.186c0.037-0.109,0.077-0.215,0.101-0.319
		c0.032-0.082,0.072-0.167,0.098-0.251c0.023-0.07,0.048-0.133,0.08-0.193c0.041-0.087,0.076-0.184,0.121-0.277
		c0.112-0.264,0.25-0.523,0.394-0.776c0.045-0.086,0.089-0.177,0.146-0.259c0.064-0.107,0.125-0.21,0.186-0.313
		c0.129-0.195,0.259-0.385,0.395-0.569c0.013-0.017,0.028-0.041,0.049-0.067c0.048-0.075,0.108-0.143,0.169-0.213
		c0.081-0.107,0.165-0.216,0.258-0.324c0.153-0.184,0.313-0.361,0.484-0.531c0.084-0.085,0.169-0.172,0.257-0.255
		c0.089-0.088,0.174-0.17,0.267-0.251c0.084-0.084,0.177-0.167,0.27-0.237c0.092-0.078,0.185-0.152,0.277-0.235
		c0.077-0.053,0.153-0.114,0.226-0.173c0.064-0.041,0.113-0.076,0.161-0.114c0.073-0.049,0.142-0.1,0.21-0.146
		c0.2-0.138,0.402-0.264,0.612-0.387c0.097-0.066,0.205-0.115,0.306-0.174c0.016-0.004,0.024-0.004,0.032-0.012
		c0.098-0.054,0.197-0.105,0.298-0.161c0.303-0.149,0.593-0.271,0.879-0.393c0.109-0.04,0.218-0.072,0.321-0.11
		c0.194-0.066,0.371-0.132,0.572-0.182c0.146-0.042,0.291-0.083,0.436-0.115c0.017-0.004,0.024-0.008,0.033-0.008
		c0.104-0.025,0.229-0.055,0.337-0.07c0.068-0.019,0.137-0.034,0.21-0.046c0.129-0.017,0.271-0.041,0.403-0.063
		c0.088-0.013,0.161-0.021,0.241-0.033c0.064-0.007,0.117-0.012,0.177-0.02c0.101-0.008,0.194-0.026,0.29-0.026
		c0.033-0.004,0.058-0.007,0.098-0.007c0.104-0.005,0.21-0.018,0.314-0.021c0.137,0,0.27-0.005,0.414-0.005
		c5.869,0,10.632,4.762,10.632,10.643c0,5.874-4.763,10.637-10.632,10.637c-0.201,0-0.406-0.017-0.601-0.029
		c-0.16-0.008-0.306-0.016-0.454-0.032c-0.029,0-0.045,0-0.062,0c-0.152-0.023-0.305-0.041-0.446-0.064
		c-0.045-0.003-0.085-0.009-0.108-0.015c-0.13-0.021-0.259-0.046-0.392-0.065c-0.108-0.033-0.201-0.049-0.31-0.065
		c-0.105-0.032-0.214-0.057-0.314-0.084c-0.398-0.104-0.789-0.229-1.16-0.374c-0.084-0.041-0.169-0.073-0.254-0.105
		c-0.213-0.088-0.423-0.182-0.625-0.281c-0.096-0.062-0.205-0.108-0.298-0.161c-0.193-0.105-0.395-0.227-0.592-0.339
		c-0.189-0.12-0.379-0.25-0.563-0.379c-0.094-0.073-0.187-0.128-0.278-0.209c-0.089-0.063-0.178-0.129-0.266-0.206
		c-0.169-0.141-0.347-0.286-0.513-0.45c-0.06-0.064-0.128-0.126-0.188-0.186c-0.04-0.024-0.064-0.053-0.089-0.086
		c-0.068-0.067-0.137-0.136-0.206-0.209c-0.076-0.075-0.152-0.16-0.229-0.249c-0.075-0.081-0.141-0.161-0.217-0.25
		c-0.077-0.093-0.137-0.186-0.209-0.266c-0.073-0.09-0.138-0.178-0.206-0.266c-0.069-0.089-0.134-0.187-0.197-0.277
		c-0.064-0.099-0.137-0.207-0.209-0.313c-0.194-0.313-0.371-0.635-0.549-0.966c-0.008-0.008-0.016-0.016-0.016-0.032
		c-0.233-0.45-0.468-0.91-0.709-1.345c-0.105-0.178-0.205-0.354-0.306-0.532c-0.146-0.254-0.282-0.491-0.428-0.75l-1.873-3.278l0,0
		l-0.303-0.532l-2.944-4.935c-0.044-0.066-0.085-0.119-0.116-0.181c-0.017-0.013-0.025-0.025-0.033-0.037l0,0l0,0l0,0
		c-0.523-0.831-1.136-1.598-1.828-2.282c-2.334-2.306-5.544-3.731-9.08-3.731c-3.775,0-7.167,1.611-9.53,4.189V-4.923H-1.1V9.8
		l0.008,0.014l1.495,2.606c1.18-4.587,5.341-7.979,10.301-7.979c2.702,0,5.172,1.011,7.049,2.669
		c0.785,0.693,1.462,1.503,2.019,2.405c0.024,0.046,0.052,0.086,0.076,0.132c0.068,0.116,0.137,0.239,0.205,0.362
		c0.065,0.116,0.125,0.244,0.194,0.363l1.386,2.479l1.071,1.901l0.863,1.54c0,0,0,0,0-0.009l0.052,0.088l0.007,0.017l0.871,1.547
		c0,0,1.615,2.654,2.122,3.485c0.025,0.023,0.033,0.055,0.057,0.084c0.028,0.049,0.062,0.089,0.072,0.117
		c0.005,0.012,0.005,0.021,0.017,0.028c0.009,0.009,0.009,0.009,0.009,0.009c0.137,0.24,0.285,0.471,0.442,0.692
		c0.153,0.233,0.314,0.454,0.483,0.676c0,0.005,0.009,0.017,0.021,0.025c0.161,0.208,0.334,0.409,0.508,0.603
		c0.188,0.207,0.37,0.403,0.564,0.605c0.289,0.285,0.6,0.563,0.914,0.813c0.33,0.267,0.652,0.515,0.99,0.741
		c0.104,0.081,0.218,0.145,0.33,0.218c0.057,0.032,0.113,0.067,0.166,0.1c0.084,0.053,0.178,0.102,0.262,0.154
		c0.161,0.084,0.33,0.182,0.491,0.27c0.432,0.218,0.871,0.415,1.329,0.593c0.113,0.043,0.226,0.084,0.344,0.125
		c0.245,0.089,0.479,0.156,0.729,0.233c0.085,0.024,0.161,0.047,0.246,0.064c0.382,0.101,0.776,0.192,1.18,0.258
		c0.129,0.017,0.25,0.04,0.371,0.056c0.137,0.018,0.281,0.032,0.419,0.057h0.017c0.124,0.008,0.262,0.021,0.394,0.028
		C37.279,27.988,37.582,28,37.893,28c0.133,0,0.274,0,0.418-0.004c0.153-0.008,0.311-0.013,0.46-0.017
		c0.121-0.016,0.233-0.021,0.347-0.032c0.267-0.028,0.535-0.061,0.798-0.104c0.088-0.008,0.182-0.021,0.257-0.044
		c0.098-0.013,0.202-0.029,0.291-0.056c0.017,0,0.056-0.01,0.072-0.01c0.088-0.022,0.185-0.039,0.266-0.06
		c0.749-0.173,1.467-0.415,2.159-0.701c0.108-0.053,0.225-0.101,0.339-0.152c0.111-0.057,0.237-0.118,0.354-0.173
		c0.104-0.062,0.226-0.114,0.338-0.175c0.017-0.007,0.032-0.02,0.053-0.035c0.189-0.098,0.366-0.198,0.548-0.304
		c0.031-0.032,0.068-0.047,0.101-0.071c0.089-0.053,0.185-0.113,0.27-0.174c0.327-0.217,0.645-0.442,0.946-0.685
		c0.202-0.166,0.399-0.327,0.593-0.503c0.085-0.085,0.189-0.17,0.277-0.254c0.009,0,0.012-0.017,0.017-0.017
		c0.089-0.085,0.173-0.169,0.258-0.254c0.354-0.358,0.685-0.729,0.991-1.116c0.012-0.007,0.02-0.027,0.032-0.044
		c0.081-0.094,0.148-0.201,0.233-0.302c0.072-0.105,0.146-0.206,0.219-0.315c1.364-1.969,2.19-4.35,2.268-6.912v-0.314v-0.415
		V-4.923h-2.272V7.751H48.512z"/>
	<path fill="#FFFFFF" d="M21.094,17.8l-0.076-0.129c-1.156,4.624-5.334,8.049-10.309,8.049c-4.378,0-8.12-2.642-9.753-6.404
		l-0.366-0.638l-2.744-4.813l-0.302-0.532l-2.945-4.935l-0.012-0.021c-2.272-3.725-6.365-6.215-11.042-6.215
		c-6.033,0-11.094,4.129-12.521,9.714c-0.239,0.921-0.374,1.896-0.396,2.902c-0.004,0.101-0.004,0.201-0.004,0.306
		c0,7.131,5.785,12.907,12.921,12.907c4.413,0,8.31-2.203,10.637-5.592v5.592h2.278v-5.567l-1.138-2.043l-1.14-2.041l-0.338-0.605
		c-1.179,4.59-5.346,7.985-10.298,7.985c-5.038,0-9.25-3.496-10.352-8.189c-0.186-0.786-0.288-1.607-0.288-2.446
		c0-0.37,0.021-0.732,0.057-1.096l0,0c0.546-5.359,5.076-9.543,10.583-9.543c3.771,0,7.082,1.968,8.971,4.925l0.025,0.043
		c0.195,0.313,0.376,0.634,0.546,0.964l0.732,1.315l1.725,3.065l0.857,1.527l0.059,0.104l0.87,1.555l2.272,3.716
		c2.25,3.793,6.383,6.328,11.11,6.328c5.274,0,9.822-3.17,11.815-7.703l-0.531-0.886L21.094,17.8z"/>
</g>
<g>
	<rect x="-29.376" y="37.512" fill="#FFFFFF" width="0.568" height="7.534"/>
	<polygon fill="#FFFFFF" points="-17.703,37.512 -17.703,45.046 -18.205,45.046 -22.654,38.561 -22.654,45.046 -23.22,45.046 
		-23.22,37.512 -22.727,37.512 -18.27,43.99 -18.27,37.512 	"/>
	<polygon fill="#FFFFFF" points="-7.487,38.044 -9.854,38.044 -9.854,45.046 -10.437,45.046 -10.437,38.044 -12.804,38.044 
		-12.804,37.512 -7.487,37.512 	"/>
	<polygon fill="#FFFFFF" points="1.744,44.507 1.744,45.046 -2.591,45.046 -2.591,37.512 1.691,37.512 1.691,38.044 -2.021,38.044 
		-2.021,40.973 1.424,40.973 1.424,41.515 -2.021,41.515 -2.021,44.507 	"/>
	<path fill="#FFFFFF" d="M9.806,41.957h-2.38v3.089H6.854v-7.534h2.971c1.229,0,2.233,0.997,2.233,2.225
		c0,1.022-0.702,1.881-1.66,2.14l1.874,3.17h-0.657L9.806,41.957z M7.426,41.414h2.399c0.912,0,1.66-0.749,1.66-1.678
		c0-0.935-0.748-1.692-1.66-1.692H7.426V41.414z"/>
	<rect x="17.167" y="37.512" fill="#FFFFFF" width="0.566" height="7.534"/>
	<path fill="#FFFFFF" d="M22.888,41.272c0-2.151,1.714-3.884,3.888-3.884c2.175,0,3.885,1.732,3.885,3.884
		c0,2.153-1.71,3.89-3.885,3.89C24.602,45.162,22.888,43.426,22.888,41.272 M30.093,41.272c0-1.849-1.459-3.332-3.317-3.332
		c-1.861,0-3.313,1.483-3.313,3.332c0,1.86,1.451,3.341,3.313,3.341C28.634,44.613,30.093,43.133,30.093,41.272"/>
	<path fill="#FFFFFF" d="M38.764,41.957h-2.38v3.089h-0.571v-7.534h2.97c1.23,0,2.229,0.997,2.229,2.225
		c0,1.022-0.698,1.881-1.656,2.14l1.873,3.17h-0.655L38.764,41.957z M36.384,41.414h2.399c0.918,0,1.66-0.749,1.66-1.678
		c0-0.935-0.742-1.692-1.66-1.692h-2.399V41.414z"/>
	<path fill="#FFFFFF" d="M45.565,43.389l0.495-0.293c0.256,0.903,1.022,1.518,2.261,1.518c1.256,0,1.894-0.645,1.894-1.507
		c0-0.9-0.797-1.247-1.95-1.617c-1.26-0.41-2.387-0.763-2.387-2.074c0-1.241,0.996-2.026,2.28-2.026
		c1.238,0,2.058,0.709,2.421,1.585l-0.486,0.269c-0.277-0.681-0.858-1.302-1.935-1.302c-1.041,0-1.703,0.614-1.703,1.452
		c0,0.905,0.767,1.185,1.844,1.538c1.338,0.442,2.497,0.861,2.497,2.165c0,1.247-0.98,2.066-2.475,2.066
		C46.908,45.162,45.911,44.454,45.565,43.389"/>
</g>
</svg>
