<?xml version="1.0" encoding="utf-8"?>
<!-- Generator: Adobe Illustrator 16.0.0, SVG Export Plug-In . SVG Version: 6.00 Build 0)  -->
<!DOCTYPE svg PUBLIC "-//W3C//DTD SVG 1.1//EN" "http://www.w3.org/Graphics/SVG/1.1/DTD/svg11.dtd">
<svg version="1.1" id="Layer_1" xmlns="http://www.w3.org/2000/svg" xmlns:xlink="http://www.w3.org/1999/xlink" x="0px" y="0px"
	 width="260px" height="67px" viewBox="0 0 260 67" enable-background="new 0 0 260 67" xml:space="preserve">
<rect x="-6" y="-5" fill="#1E1F22" width="277.5" height="74"/>
<g>
	<path fill="#FFFFFF" d="M118.084,26.614c-0.097-0.141-0.191-0.282-0.296-0.42c-0.082-0.121-0.173-0.236-0.26-0.348
		c-0.085-0.114-0.175-0.227-0.269-0.34c-0.18-0.228-0.367-0.449-0.563-0.668c-0.094-0.105-0.194-0.217-0.287-0.32
		c-0.102-0.104-0.203-0.209-0.309-0.315c-0.1-0.099-0.199-0.206-0.305-0.305c-0.201-0.206-0.42-0.398-0.635-0.595
		c-0.111-0.093-0.217-0.188-0.326-0.28c-0.109-0.097-0.226-0.191-0.336-0.279c-0.46-0.373-0.939-0.728-1.438-1.058
		c-0.11-0.067-0.219-0.139-0.332-0.209c-2.488-1.571-5.377-2.553-8.48-2.771c-0.261-0.021-0.529-0.028-0.8-0.043
		c-0.166-0.003-0.329-0.003-0.493-0.003c-0.234,0-0.47,0.003-0.704,0.018c-0.097,0-0.198,0.004-0.294,0.008
		c-0.199,0.013-0.393,0.027-0.59,0.043c-0.266,0.021-0.523,0.054-0.784,0.087c-0.194,0.026-0.384,0.052-0.579,0.083
		c-0.213,0.031-0.424,0.072-0.636,0.117c-0.22,0.041-0.435,0.088-0.651,0.142c-0.078,0.015-0.15,0.034-0.224,0.052
		c-0.128,0.03-0.249,0.067-0.375,0.1c-0.306,0.084-0.619,0.172-0.917,0.281c-0.148,0.043-0.3,0.098-0.447,0.149
		c-0.275,0.099-0.541,0.196-0.81,0.312c-0.349,0.141-0.687,0.291-1.019,0.461c-0.117,0.051-0.227,0.107-0.34,0.168
		c-0.145,0.068-0.279,0.143-0.416,0.222c-0.138,0.071-0.277,0.149-0.41,0.229c-0.148,0.079-0.287,0.164-0.427,0.252
		c-0.258,0.157-0.509,0.326-0.76,0.493c-0.384,0.269-0.763,0.548-1.123,0.837c-0.242,0.192-0.479,0.397-0.709,0.604
		c-0.115,0.104-0.231,0.209-0.351,0.313c-0.111,0.098-0.221,0.211-0.336,0.32c-0.106,0.109-0.215,0.219-0.323,0.33
		c-0.107,0.107-0.218,0.225-0.319,0.341c-0.33,0.363-0.65,0.734-0.951,1.125c-0.304,0.388-0.592,0.785-0.859,1.194
		c-0.274,0.417-0.525,0.837-0.77,1.271c-0.229,0.426-0.453,0.86-0.648,1.31c-0.008,0.005-0.014,0.015-0.014,0.024l2.129,3.714
		c0.058-0.221,0.121-0.44,0.188-0.664c0.021-0.086,0.054-0.176,0.085-0.262c0.046-0.15,0.1-0.303,0.15-0.451
		c0.043-0.12,0.088-0.239,0.137-0.361c0.029-0.093,0.07-0.185,0.113-0.273c0.053-0.13,0.107-0.26,0.172-0.396
		c0.162-0.377,0.345-0.75,0.55-1.105c0.069-0.126,0.144-0.253,0.215-0.377c0.085-0.15,0.181-0.297,0.267-0.441
		c0.178-0.274,0.36-0.547,0.553-0.809c0.021-0.031,0.047-0.064,0.076-0.096c0.068-0.104,0.151-0.206,0.229-0.305
		c0.115-0.156,0.24-0.312,0.372-0.463c0.22-0.265,0.447-0.515,0.688-0.754c0.123-0.123,0.244-0.242,0.364-0.363
		c0.125-0.121,0.251-0.235,0.38-0.354c0.125-0.121,0.254-0.229,0.387-0.335c0.129-0.109,0.264-0.223,0.398-0.325
		c0.104-0.085,0.215-0.169,0.319-0.245c0.075-0.056,0.149-0.106,0.217-0.154c0.099-0.073,0.199-0.139,0.3-0.209
		c0.284-0.194,0.57-0.381,0.872-0.551c0.146-0.091,0.293-0.168,0.445-0.254c0.01-0.006,0.019-0.011,0.032-0.015
		c0.14-0.078,0.287-0.153,0.439-0.228c0.411-0.205,0.825-0.391,1.25-0.551c0.148-0.058,0.294-0.109,0.447-0.162
		c0.266-0.096,0.535-0.187,0.811-0.265c0.209-0.058,0.418-0.114,0.629-0.164c0.014-0.003,0.031-0.009,0.043-0.009
		c0.154-0.038,0.313-0.072,0.467-0.105c0.104-0.019,0.207-0.041,0.308-0.063c0.188-0.031,0.384-0.063,0.575-0.09
		c0.115-0.016,0.23-0.031,0.345-0.041c0.083-0.018,0.17-0.027,0.251-0.033c0.137-0.018,0.275-0.029,0.409-0.034
		c0.043-0.008,0.083-0.011,0.134-0.011c0.151-0.01,0.297-0.023,0.451-0.028c0.193-0.004,0.385-0.009,0.585-0.009
		c8.354,0,15.131,6.773,15.131,15.133c0,8.356-6.776,15.13-15.131,15.13c-0.287,0-0.573-0.009-0.86-0.025
		c-0.215-0.006-0.43-0.024-0.645-0.057c-0.031,0-0.057,0-0.082,0c-0.212-0.021-0.428-0.048-0.641-0.082
		c-0.057-0.005-0.108-0.014-0.16-0.021c-0.184-0.029-0.367-0.067-0.545-0.102c-0.148-0.033-0.291-0.057-0.438-0.088
		c-0.157-0.037-0.312-0.076-0.461-0.115c-0.563-0.142-1.112-0.321-1.642-0.53c-0.12-0.052-0.241-0.103-0.365-0.149
		c-0.303-0.124-0.596-0.257-0.883-0.406c-0.143-0.069-0.287-0.144-0.43-0.223c-0.283-0.154-0.563-0.316-0.842-0.484
		c-0.27-0.176-0.539-0.354-0.8-0.539c-0.13-0.094-0.267-0.191-0.396-0.291c-0.131-0.094-0.256-0.198-0.379-0.301
		c-0.248-0.199-0.49-0.406-0.727-0.639c-0.096-0.082-0.191-0.178-0.277-0.264c-0.043-0.024-0.088-0.075-0.125-0.109
		c-0.093-0.1-0.187-0.203-0.281-0.296c-0.111-0.121-0.215-0.237-0.324-0.358c-0.106-0.117-0.209-0.229-0.313-0.365
		c-0.103-0.119-0.203-0.244-0.297-0.371c-0.102-0.129-0.197-0.248-0.29-0.377c-0.096-0.131-0.19-0.26-0.278-0.396
		c-0.1-0.146-0.196-0.305-0.299-0.457c-0.279-0.44-0.531-0.905-0.779-1.371c-0.008-0.009-0.012-0.03-0.021-0.046
		c-0.336-0.635-0.659-1.289-1.017-1.904c-0.143-0.258-0.285-0.504-0.432-0.759c-0.201-0.358-0.403-0.708-0.603-1.065l-2.665-4.663
		v-0.007l-0.43-0.756l-4.194-7.021c-0.056-0.088-0.112-0.173-0.17-0.258c-0.011-0.02-0.025-0.036-0.038-0.057h-0.003l0,0h-0.003
		c-0.747-1.18-1.614-2.271-2.602-3.24c-3.32-3.289-7.883-5.315-12.918-5.315c-5.363,0-10.194,2.304-13.554,5.968V8.586h-3.24v20.946
		l0.01,0.018l2.125,3.714c1.684-6.536,7.606-11.354,14.66-11.354c3.851,0,7.357,1.434,10.025,3.798
		c1.12,0.992,2.089,2.142,2.871,3.423c0.039,0.063,0.075,0.12,0.11,0.184c0.102,0.168,0.2,0.341,0.296,0.514
		c0.096,0.175,0.182,0.35,0.27,0.527l1.976,3.521l1.523,2.71l1.223,2.187v-0.006l0.073,0.127l0.011,0.022l1.238,2.203
		c0,0,2.298,3.772,3.019,4.947c0.033,0.04,0.049,0.086,0.076,0.12c0.043,0.076,0.076,0.127,0.101,0.168
		c0.004,0.013,0.011,0.022,0.022,0.041c0.008,0.014,0.015,0.017,0.015,0.017c0.198,0.333,0.407,0.666,0.627,0.99
		c0.224,0.323,0.452,0.635,0.694,0.948c0.006,0.02,0.017,0.024,0.027,0.035c0.23,0.295,0.475,0.582,0.721,0.86
		c0.263,0.288,0.529,0.57,0.801,0.847c0.414,0.416,0.851,0.805,1.303,1.172c0.457,0.381,0.926,0.729,1.413,1.052
		c0.153,0.106,0.305,0.198,0.461,0.305c0.079,0.047,0.163,0.095,0.239,0.146c0.125,0.072,0.248,0.146,0.369,0.217
		c0.233,0.136,0.461,0.263,0.705,0.381c0.608,0.316,1.238,0.604,1.883,0.85c0.164,0.055,0.328,0.121,0.494,0.178
		c0.342,0.125,0.685,0.229,1.035,0.328c0.116,0.035,0.227,0.063,0.342,0.099c0.551,0.144,1.119,0.268,1.689,0.353
		c0.176,0.034,0.348,0.057,0.521,0.082c0.197,0.031,0.396,0.051,0.599,0.07h0.017c0.183,0.021,0.377,0.038,0.566,0.048
		c0.424,0.031,0.859,0.045,1.295,0.045c0.197,0,0.396,0,0.59-0.008c0.227-0.006,0.445-0.015,0.669-0.028
		c0.16-0.009,0.322-0.031,0.487-0.048c0.382-0.028,0.766-0.079,1.141-0.142c0.12-0.021,0.247-0.036,0.365-0.059
		c0.139-0.021,0.273-0.047,0.411-0.08c0.032-0.006,0.067-0.015,0.099-0.015c0.133-0.032,0.264-0.06,0.391-0.093
		c1.059-0.237,2.08-0.578,3.06-0.996c0.163-0.066,0.327-0.141,0.484-0.221c0.167-0.072,0.336-0.151,0.499-0.233
		c0.16-0.079,0.326-0.165,0.486-0.257c0.027-0.01,0.053-0.025,0.08-0.036c0.264-0.146,0.516-0.294,0.768-0.446
		c0.054-0.027,0.105-0.057,0.15-0.093c0.135-0.079,0.267-0.164,0.391-0.251c0.469-0.301,0.918-0.627,1.354-0.977
		c0.284-0.229,0.563-0.461,0.835-0.709c0.13-0.114,0.269-0.233,0.4-0.363c0.006-0.005,0.015-0.014,0.019-0.014
		c0.127-0.131,0.25-0.248,0.368-0.371c0.5-0.502,0.966-1.031,1.408-1.59c0.019-0.018,0.032-0.035,0.043-0.052
		c0.106-0.141,0.214-0.284,0.323-0.432c0.109-0.149,0.216-0.296,0.313-0.448c1.946-2.809,3.12-6.195,3.232-9.838V37.18v-0.595V8.586
		h-3.241v18.028H118.084z"/>
	<path fill="#FFFFFF" d="M79.078,40.91l-0.099-0.182c-1.643,6.576-7.589,11.443-14.673,11.443c-6.218,0-11.55-3.75-13.875-9.1
		l-0.521-0.918l-3.9-6.84l-0.432-0.762l-4.196-7.021l-0.017-0.028c-3.226-5.296-9.052-8.842-15.711-8.842
		c-8.574,0-15.78,5.876-17.806,13.815c-0.34,1.326-0.539,2.711-0.567,4.133c-0.006,0.144-0.006,0.285-0.006,0.432
		c0,10.146,8.229,18.371,18.379,18.371c6.281,0,11.819-3.148,15.134-7.958v7.958h3.241v-7.919l-1.618-2.911l-1.624-2.906
		l-0.477-0.859c-1.683,6.527-7.603,11.355-14.657,11.355c-7.163,0-13.155-4.969-14.725-11.648c-0.268-1.117-0.408-2.282-0.408-3.481
		c0-0.517,0.027-1.041,0.08-1.549V35.49c0.776-7.634,7.218-13.584,15.053-13.584c5.366,0,10.077,2.801,12.767,7.008l0.035,0.062
		c0.281,0.449,0.536,0.904,0.772,1.379l1.045,1.868l2.453,4.362l1.223,2.179l0.08,0.151l1.237,2.203l3.231,5.293
		c3.202,5.396,9.079,9.002,15.807,9.002c7.508,0,13.972-4.508,16.819-10.966l-0.763-1.252L79.078,40.91z"/>
</g>
<g>
	<rect x="133.852" y="29.448" fill="#FFFFFF" width="0.888" height="11.76"/>
	<polygon fill="#FFFFFF" points="152.074,29.448 152.074,41.208 151.291,41.208 144.346,31.087 144.346,41.208 143.462,41.208 
		143.462,29.448 144.231,29.448 151.188,39.563 151.188,29.448 	"/>
	<polygon fill="#FFFFFF" points="168.02,30.281 164.325,30.281 164.325,41.208 163.416,41.208 163.416,30.281 159.72,30.281 
		159.72,29.448 168.02,29.448 	"/>
	<polygon fill="#FFFFFF" points="182.43,40.369 182.43,41.208 175.662,41.208 175.662,29.448 182.348,29.448 182.348,30.281 
		176.553,30.281 176.553,34.851 181.933,34.851 181.933,35.696 176.553,35.696 176.553,40.369 	"/>
	<path fill="#FFFFFF" d="M195.016,36.388h-3.715v4.82h-0.894v-11.76h4.636c1.92,0,3.486,1.559,3.486,3.472
		c0,1.597-1.096,2.937-2.59,3.34l2.924,4.948h-1.026L195.016,36.388z M191.301,35.54h3.742c1.426,0,2.593-1.169,2.593-2.62
		c0-1.457-1.167-2.639-2.593-2.639h-3.742V35.54z"/>
	<rect x="206.505" y="29.448" fill="#FFFFFF" width="0.885" height="11.76"/>
	<path fill="#FFFFFF" d="M215.435,35.319c0-3.358,2.676-6.063,6.068-6.063c3.396,0,6.065,2.704,6.065,6.063
		c0,3.361-2.67,6.072-6.065,6.072C218.11,41.392,215.435,38.681,215.435,35.319 M226.682,35.319c0-2.887-2.276-5.201-5.179-5.201
		c-2.904,0-5.17,2.314-5.17,5.201c0,2.903,2.266,5.214,5.17,5.214C224.405,40.533,226.682,38.223,226.682,35.319"/>
	<path fill="#FFFFFF" d="M240.218,36.388h-3.716v4.82h-0.892v-11.76h4.635c1.922,0,3.482,1.559,3.482,3.472
		c0,1.597-1.092,2.937-2.588,3.34l2.926,4.948h-1.023L240.218,36.388z M236.505,35.54h3.743c1.434,0,2.591-1.169,2.591-2.62
		c0-1.457-1.157-2.639-2.591-2.639h-3.743V35.54z"/>
	<path fill="#FFFFFF" d="M250.835,38.623l0.771-0.458c0.402,1.411,1.599,2.368,3.529,2.368c1.963,0,2.957-1.006,2.957-2.352
		c0-1.405-1.245-1.945-3.043-2.523c-1.969-0.641-3.728-1.191-3.728-3.239c0-1.937,1.556-3.162,3.56-3.162
		c1.935,0,3.213,1.106,3.781,2.473l-0.76,0.42c-0.434-1.061-1.341-2.031-3.021-2.031c-1.624,0-2.656,0.957-2.656,2.266
		c0,1.412,1.195,1.851,2.876,2.4c2.089,0.689,3.898,1.344,3.898,3.38c0,1.946-1.53,3.227-3.864,3.227
		C252.931,41.392,251.375,40.286,250.835,38.623"/>
</g>
</svg>
